<?xml version="1.0" encoding="UTF-8"?>
<!DOCTYPE svg PUBLIC "-//W3C//DTD SVG 1.1//EN" "http://www.w3.org/Graphics/SVG/1.1/DTD/svg11.dtd">
<!-- Creator: CorelDRAW X7 -->
<svg xmlns="http://www.w3.org/2000/svg" xml:space="preserve" width="1000px" height="1000px" version="1.1" style="shape-rendering:geometricPrecision; text-rendering:geometricPrecision; image-rendering:optimizeQuality; fill-rule:evenodd; clip-rule:evenodd"
viewBox="0 0 1000 1000"
 xmlns:xlink="http://www.w3.org/1999/xlink">
 <defs>
  <style type="text/css">
   <![CDATA[
    .fil0 {fill:#E60000}
    .fil3 {fill:#F1E50D}
    .fil1 {fill:#F1E60D}
    .fil2 {fill:#FEFEFE}
   ]]>
  </style>
 </defs>
 <g id="Capa_x0020_1">
  <metadata id="CorelCorpID_0Corel-Layer"/>
  <g id="_659173664">
   <circle class="fil0" cx="500" cy="500" r="500"/>
   <g>
    <path class="fil1" d="M788 768c-3,15 5,25 19,25 33,0 67,-45 68,-68 -1,1 -2,2 -4,3 -6,6 -22,29 -25,31 0,-16 -3,-18 -9,-30 -15,-30 11,-28 9,-42 -2,-9 -21,-15 -35,5 -9,13 -3,20 -9,32 -7,15 -20,33 -33,43 -5,4 -28,19 -30,4 -1,-3 0,-5 0,-8 4,-2 9,-3 14,-6 36,-23 57,-79 4,-61 -35,12 -41,40 -48,50 -5,9 -18,28 -28,31 2,-24 36,-80 46,-113 3,-9 4,-13 -2,-19 -4,-4 -10,-9 -18,-8 -4,16 -8,26 -14,41 -10,21 -40,98 -64,101 2,-22 30,-61 26,-71 -2,-6 -11,-13 -20,-11 -4,14 -15,35 -21,49 -4,7 -18,23 -25,28 -1,1 -3,3 -5,3 -5,2 -6,1 -6,0 -8,-10 26,-72 30,-84 14,-1 23,-1 35,-6 1,1 5,13 19,2 16,-12 -2,-27 -10,-20 -5,4 -1,4 -10,6 -8,2 -17,4 -27,4 2,-7 10,-21 8,-29 -2,-5 -14,-16 -21,-12 -2,3 -5,16 -7,21 -3,6 -6,12 -8,19 -9,0 -20,-3 -29,-5 2,-9 4,-19 -1,-27 -4,-6 -13,-9 -24,-6 -1,7 2,6 -3,14l-18 30c-15,25 -67,108 -86,113 -5,-47 55,-110 56,-157 1,-27 -7,-38 -34,-36 -56,5 -110,56 -100,110 2,10 6,18 11,24 5,4 18,12 26,5 4,-6 -27,-28 7,-82 8,-13 38,-51 63,-45 17,17 -56,128 -55,161 0,16 8,34 21,36 20,2 49,-39 59,-52 7,-10 15,-24 23,-33 -3,10 -9,20 -13,30 -23,66 26,88 35,75 3,-7 -6,-9 -9,-17 -9,-19 -1,-45 7,-63 7,-15 29,-57 32,-70 9,3 15,7 26,8 -7,18 -27,53 -29,72 -2,15 9,29 21,30 16,2 29,-15 33,-17 4,5 4,11 9,14 18,11 34,-11 41,-18 4,7 0,11 9,18 12,9 26,-2 34,-11 3,-3 8,-10 11,-13 5,9 5,15 13,20 29,23 61,-16 65,-18 10,1 4,9 12,11 11,2 21,-16 19,-28 -1,-5 -6,-14 -9,-16 -6,13 -20,29 -22,33zm-44 -21c10,-4 34,-27 33,-42 -9,1 -15,10 -20,17 -4,5 -11,18 -13,25z"/>
    <path class="fil2" d="M409 448c2,-6 10,-20 8,-28 -1,-7 -12,-15 -21,-14 -3,7 -4,13 -7,21 -3,7 -5,13 -9,20 -9,1 -31,-8 -37,-4 -5,12 25,14 31,18 -7,16 -15,31 -22,48 -3,9 -19,37 -30,40 2,-21 28,-57 27,-69 0,-6 -6,-12 -9,-14 -10,-7 -16,4 -27,15 -3,3 -7,9 -11,12 2,-8 5,-14 -1,-20 -3,-3 -10,-8 -18,-7 -3,4 -3,11 -5,15 -2,4 -4,8 -6,12 -7,14 -23,40 -17,55 5,16 22,19 23,11 0,0 0,-1 0,-1l-1 -8c1,-6 11,-20 15,-24 4,-5 7,-10 11,-15 2,-2 10,-11 11,-13 0,3 -8,20 -10,25 -13,34 9,45 23,38 5,-3 15,-13 17,-18 3,3 4,9 9,13 3,3 9,7 15,7 18,1 39,-24 48,-37 3,-5 6,-8 9,-13 5,-7 5,-10 9,-12 2,4 1,3 -1,7l-7 20c-4,10 -5,20 2,28 18,19 36,-5 43,-16 3,3 4,8 7,11 15,19 50,17 69,9 10,-4 14,-7 21,-13 -6,1 -75,23 -69,-13 9,-7 23,-8 42,-36 37,-59 -59,-38 -71,19 -2,10 -16,32 -24,34 -4,-10 16,-33 14,-47 -4,-4 -12,-5 -14,-14 -1,-8 6,-13 0,-20 -4,-5 -14,-8 -20,-2 -8,8 -2,15 -4,21 -2,13 -36,64 -52,58 -3,-13 17,-51 23,-65 3,-6 7,-15 10,-20 11,-1 19,0 30,-4 7,-2 22,-7 18,-14 -4,-3 -32,4 -42,4zm95 69c10,-4 33,-27 33,-42 -9,1 -16,11 -20,17 -4,5 -12,19 -13,25z"/>
    <path class="fil1" d="M605 488c4,2 8,6 13,8l98 -134c-3,-2 -7,-6 -12,-9 -5,5 -8,11 -13,17 -4,6 -8,11 -12,16l-49 68c-5,7 -22,28 -25,34z"/>
    <path class="fil1" d="M693 337c4,3 39,29 43,31 8,-14 28,-29 15,-40 -4,-3 -9,-6 -13,-9 -6,-4 -18,-16 -27,-7 -2,2 -16,22 -18,25z"/>
    <path class="fil1" d="M624 501c2,2 6,5 9,6 4,-4 9,-12 12,-16 4,-6 8,-11 12,-17l50 -67c4,-6 23,-30 24,-35 -3,-1 -5,-3 -9,-5 -3,2 -21,27 -24,32l-62 84c-4,5 -10,13 -12,18z"/>
    <path class="fil1" d="M591 476c1,2 0,1 1,2 1,0 3,2 3,2 2,2 2,2 5,2 4,-3 8,-10 12,-16 5,-6 8,-11 12,-16 9,-11 73,-97 74,-102 -4,-2 -5,-3 -9,-5 -2,1 -1,1 -3,3 -1,2 -2,3 -3,5 -2,3 -4,5 -7,8l-85 117z"/>
    <path class="fil3" d="M581 515c10,6 16,15 23,12 5,-2 20,-11 24,-14 -2,-3 -16,-12 -20,-15l-21 -16c0,1 0,1 0,1 -1,1 -1,1 -1,1 -2,5 -6,27 -5,31z"/>
    <path class="fil3" d="M495 621c-1,22 30,0 37,-4 4,-3 15,-11 15,-15 0,-6 -13,-11 -19,-11 -5,13 -27,25 -33,30z"/>
    <path class="fil3" d="M593 532c-2,-3 -12,-9 -15,-11l-3 21 18 -10z"/>
    <path class="fil2" d="M255 406c2,7 -22,30 -4,47 7,7 20,9 18,-1 -2,-12 0,-14 5,-23 7,-11 22,-30 20,-45 -1,-9 -10,-16 -17,-16 -6,0 -5,4 -6,9 -1,5 -3,8 -4,12 -7,-3 -7,-7 -18,-8 -30,-5 -65,22 -81,45 -10,14 -9,21 -4,39 -19,7 -47,35 -58,53 -7,12 -13,25 -10,43 3,16 12,26 24,31 28,11 64,-5 86,-17 13,-7 23,-14 32,-23 33,-32 10,-42 1,-33 -3,3 -2,8 -3,13 -6,16 -36,34 -53,41 -44,17 -74,-2 -48,-45 9,-14 39,-45 50,-43 5,0 37,14 50,-1 5,-7 0,-19 -4,-24 -14,-14 -37,-6 -48,-5 1,-14 18,-30 26,-35 11,-8 29,-17 46,-14zm-32 74c-5,-4 -11,-3 -18,-3 5,3 12,4 18,3z"/>
   </g>
  </g>
 </g>
</svg>
