<?xml version="1.0" encoding="UTF-8"?>
<!DOCTYPE svg PUBLIC "-//W3C//DTD SVG 1.1//EN" "http://www.w3.org/Graphics/SVG/1.1/DTD/svg11.dtd">
<!-- Creator: CorelDRAW X7 -->
<svg xmlns="http://www.w3.org/2000/svg" xml:space="preserve" width="2289px" height="1551px" version="1.1" style="shape-rendering:geometricPrecision; text-rendering:geometricPrecision; image-rendering:optimizeQuality; fill-rule:evenodd; clip-rule:evenodd"
viewBox="0 0 2289 1551"
 xmlns:xlink="http://www.w3.org/1999/xlink">
 <defs>
  <style type="text/css">
   <![CDATA[
    .fil2 {fill:#F1E50D}
    .fil0 {fill:#F1E60D}
    .fil1 {fill:#FEFEFE}
   ]]>
  </style>
 </defs>
 <g id="Capa_x0020_1">
  <metadata id="CorelCorpID_0Corel-Layer"/>
  <g id="_464713184">
   <path class="fil0" d="M2034 1349c-8,43 14,73 56,73 96,1 197,-132 199,-200 -2,4 -7,6 -11,11 -17,18 -64,85 -74,91 0,-49 -9,-54 -27,-90 -42,-86 34,-81 26,-122 -4,-26 -61,-45 -102,16 -26,37 -9,57 -25,91 -21,45 -60,99 -99,129 -14,10 -82,56 -88,10 -1,-8 0,-14 2,-22 12,-7 27,-11 39,-19 107,-68 169,-233 13,-179 -102,36 -120,116 -140,148 -17,26 -53,82 -82,88 5,-69 104,-233 135,-329 8,-28 10,-40 -8,-57 -10,-10 -29,-25 -51,-23 -14,46 -24,77 -43,119 -28,63 -115,289 -186,297 4,-63 87,-179 76,-207 -7,-17 -34,-38 -60,-35 -11,43 -43,104 -62,145 -10,23 -51,69 -72,84 -4,3 -10,7 -16,9 -15,5 -16,1 -18,-1 -21,-29 78,-212 89,-247 40,-2 69,-4 104,-16 1,0 13,37 56,4 45,-34 -7,-78 -32,-57 -13,11 -1,11 -27,17 -26,6 -52,10 -80,11 6,-22 28,-61 22,-84 -4,-15 -41,-48 -61,-37 -5,8 -14,48 -20,62 -8,19 -17,36 -22,55 -26,1 -61,-8 -85,-13 6,-27 11,-56 -4,-79 -12,-19 -40,-28 -70,-20 -5,23 6,18 -8,42l-54 90c-44,71 -196,315 -252,330 -16,-137 160,-322 164,-460 2,-79 -22,-112 -101,-105 -164,14 -322,165 -293,322 5,29 18,54 33,70 13,12 53,37 75,15 12,-19 -79,-84 21,-241 24,-38 112,-148 185,-132 49,49 -163,377 -162,474 1,45 24,99 62,103 58,7 144,-112 174,-151 21,-29 44,-70 66,-96 -9,28 -25,57 -36,88 -68,193 76,258 100,219 10,-22 -15,-27 -25,-48 -28,-58 -4,-134 20,-186 20,-44 86,-169 94,-206 27,9 44,19 76,24 -20,53 -79,156 -85,212 -4,43 28,83 64,87 45,4 83,-44 96,-50 10,16 11,31 26,41 51,34 100,-31 120,-53 12,20 1,32 27,52 35,27 75,-6 98,-31 10,-10 25,-30 35,-39 14,28 15,44 36,60 87,66 182,-47 192,-54 29,3 12,27 36,32 32,7 61,-46 54,-82 -2,-13 -16,-42 -25,-48 -19,41 -60,87 -65,98zm-128 -60c27,-12 98,-80 96,-124 -26,3 -45,29 -59,49 -11,16 -33,54 -37,75z"/>
   <path class="fil1" d="M922 410c5,-19 28,-59 23,-82 -3,-20 -37,-44 -63,-41 -7,20 -10,38 -20,62 -8,20 -15,38 -25,56 -28,4 -91,-21 -109,-10 -16,36 71,40 90,53 -20,47 -43,91 -63,140 -11,26 -57,110 -88,117 4,-60 79,-165 78,-200 -1,-18 -19,-36 -28,-43 -29,-21 -46,13 -78,45 -10,9 -21,27 -32,34 6,-22 14,-39 -2,-57 -10,-11 -32,-24 -55,-20 -7,9 -9,30 -15,42 -5,12 -11,24 -17,36 -20,40 -66,117 -49,162 16,45 64,56 68,31 0,0 1,-1 1,-2l-3 -25c0,-17 32,-58 42,-70 11,-15 21,-27 33,-42 6,-8 30,-34 32,-39 -1,10 -24,57 -29,73 -38,100 27,132 67,111 16,-9 44,-37 51,-52 7,8 11,25 25,38 9,8 26,19 44,20 55,2 114,-69 142,-109 10,-13 17,-23 26,-37 14,-22 14,-30 27,-34 4,9 3,8 -3,20l-22 57c-10,31 -14,59 8,83 53,55 103,-16 124,-47 8,9 13,23 21,33 45,55 147,50 204,26 28,-12 42,-21 62,-39 -17,2 -222,69 -204,-39 27,-19 69,-21 122,-105 110,-173 -173,-112 -206,57 -6,30 -47,93 -70,98 -12,-29 45,-96 40,-135 -13,-15 -37,-16 -41,-42 -4,-26 17,-38 -2,-61 -11,-14 -39,-23 -56,-6 -26,24 -8,44 -12,64 -8,39 -107,187 -153,170 -8,-38 49,-151 68,-193 7,-15 19,-43 28,-56 33,-4 56,-3 88,-12 22,-6 64,-21 53,-42 -12,-7 -95,12 -122,12zm278 203c28,-13 97,-79 97,-124 -26,3 -49,32 -60,50 -10,15 -34,55 -37,74z"/>
   <path class="fil0" d="M1497 526c13,8 23,20 37,25l290 -393c-11,-8 -23,-19 -37,-26 -14,13 -24,31 -37,48 -12,17 -23,32 -36,49l-145 198c-15,20 -64,83 -72,99z"/>
   <path class="fil0" d="M1756 83c10,10 114,86 126,91 22,-41 82,-84 43,-116 -11,-8 -25,-18 -37,-26 -19,-14 -53,-49 -80,-22 -6,7 -48,65 -52,73z"/>
   <path class="fil0" d="M1551 564c7,8 18,15 27,19 12,-11 26,-34 36,-48 13,-17 24,-32 36,-49l145 -196c13,-17 68,-88 72,-102 -11,-5 -17,-11 -26,-17 -9,7 -61,81 -73,96l-181 247c-11,14 -30,37 -36,50z"/>
   <path class="fil0" d="M1455 492c3,5 0,2 5,6 0,0 6,5 7,6 7,4 6,4 14,7 13,-11 25,-32 37,-48 13,-17 23,-31 36,-48 25,-32 212,-285 215,-298 -10,-6 -14,-11 -25,-17 -6,5 -5,4 -10,11 -4,5 -5,7 -9,12 -6,9 -11,15 -19,25l-251 344z"/>
   <path class="fil2" d="M1425 605c32,18 47,46 67,36 15,-6 60,-30 72,-39 -5,-9 -46,-38 -58,-47l-62 -44c-1,0 -2,1 -2,2 0,1 -1,2 -1,2 -6,15 -17,79 -16,90z"/>
   <path class="fil2" d="M1174 917c-2,66 88,1 107,-12 11,-7 45,-32 45,-44 0,-15 -37,-30 -54,-31 -16,38 -80,72 -98,87z"/>
   <path class="fil2" d="M1461 657c-6,-8 -34,-28 -42,-32l-11 61 53 -29z"/>
   <path class="fil1" d="M470 285c3,21 -67,89 -14,139 22,21 59,27 54,-2 -6,-35 1,-42 16,-69 18,-31 63,-88 58,-132 -3,-25 -30,-46 -50,-47 -19,0 -14,14 -18,28 -3,13 -10,23 -13,35 -19,-9 -21,-21 -52,-25 -89,-13 -191,64 -237,132 -29,43 -26,63 -14,115 -55,22 -135,104 -168,156 -23,36 -39,75 -29,128 8,44 33,75 69,89 83,32 190,-14 253,-49 38,-20 67,-43 94,-69 95,-92 29,-122 4,-96 -9,10 -6,23 -11,37 -16,50 -104,101 -154,120 -130,52 -219,-3 -141,-131 26,-41 113,-131 147,-126 15,2 108,41 145,-4 16,-20 2,-54 -10,-68 -43,-43 -109,-20 -142,-14 2,-42 54,-89 77,-105 33,-24 85,-49 136,-42zm-96 218c-14,-12 -31,-9 -52,-7 13,7 34,10 52,7z"/>
  </g>
 </g>
</svg>
